<svg width="66" height="66" viewBox="0 0 66 66" fill="none" xmlns="http://www.w3.org/2000/svg">
<mask id="mask0_333_48" style="mask-type:luminance" maskUnits="userSpaceOnUse" x="0" y="0" width="67" height="66">
<path d="M66.0096 0H0V66H66.0096V0Z" fill="white"/>
</mask>
<g mask="url(#mask0_333_48)">
<path d="M64.6895 33.7501C64.6895 31.4101 64.4796 29.1601 64.0894 26.9999H33.0049V39.765H50.7674C50.0023 43.89 47.6772 47.385 44.1816 49.7251V58.0051H54.8481C61.089 52.2601 64.6895 43.7999 64.6895 33.7501Z" fill="#4285F4"/>
<path d="M33.0047 66C41.9159 66 49.3869 63.0448 54.8475 58.0051L44.1811 49.725C41.2258 51.705 37.4451 52.8749 33.0047 52.8749C24.4082 52.8749 17.1323 47.0699 14.5368 39.27H3.51025V47.82C8.94119 58.605 20.1028 66 33.0047 66Z" fill="#34A853"/>
<path d="M14.537 39.27C13.8769 37.29 13.5019 35.175 13.5019 33C13.5019 30.825 13.8769 28.71 14.537 26.73V18.18H3.51039C1.2753 22.635 0 27.6751 0 33C0 38.3249 1.2753 43.365 3.51039 47.82L14.537 39.27Z" fill="#FBBC04"/>
<path d="M33.0047 13.1251C37.8501 13.1251 42.2008 14.7899 45.6214 18.0599L55.0878 8.59485C49.3721 3.26997 41.9008 0 33.0047 0C20.1028 0 8.94119 7.39497 3.51025 18.18L14.5368 26.73C17.1323 18.9301 24.4082 13.1251 33.0047 13.1251Z" fill="#E94235"/>
</g>
</svg>
